<svg width="72" height="71" viewBox="0 0 72 71" fill="none" xmlns="http://www.w3.org/2000/svg">
<rect x="71.2068" y="70.5331" width="70.5331" height="70.5331" rx="35.2665" transform="rotate(180 71.2068 70.5331)" fill="url(#paint0_linear_5070_14609)"/>
<circle cx="35.7119" cy="35.4949" r="23.5722" stroke="white" stroke-width="4.18658"/>
<path d="M19.0277 41.3289L22.4816 30.0251H25.6687L29.1226 41.3289H26.9246L23.8475 31.3596H24.2557L21.2257 41.3289H19.0277ZM21.1001 38.9739V36.9801H27.0659V38.9739H21.1001ZM30.8435 41.3289V30.0251H34.5016C34.5905 30.0251 34.7737 30.0277 35.0511 30.033C35.3284 30.0382 35.5953 30.0565 35.8517 30.0879C36.7623 30.1978 37.5342 30.5144 38.1674 31.0378C38.8007 31.5611 39.2821 32.2257 39.6118 33.0316C39.9415 33.8375 40.1063 34.7193 40.1063 35.677C40.1063 36.6347 39.9415 37.5165 39.6118 38.3224C39.2821 39.1283 38.8007 39.7929 38.1674 40.3163C37.5342 40.8396 36.7623 41.1562 35.8517 41.2661C35.5953 41.2975 35.3284 41.3158 35.0511 41.321C34.7737 41.3263 34.5905 41.3289 34.5016 41.3289H30.8435ZM33.0101 39.3193H34.5016C34.6429 39.3193 34.8339 39.3167 35.0746 39.3115C35.3153 39.301 35.5325 39.2775 35.7261 39.2408C36.2181 39.1414 36.6184 38.9111 36.9272 38.55C37.2412 38.189 37.4714 37.7546 37.6179 37.247C37.7697 36.7394 37.8456 36.216 37.8456 35.677C37.8456 35.1118 37.7671 34.5754 37.6101 34.0678C37.4583 33.5602 37.2255 33.131 36.9115 32.7804C36.5975 32.4298 36.2024 32.2074 35.7261 32.1132C35.5325 32.0713 35.3153 32.0478 35.0746 32.0425C34.8339 32.0373 34.6429 32.0347 34.5016 32.0347H33.0101V39.3193ZM46.574 41.5644C45.7367 41.5644 44.9805 41.4179 44.3054 41.1248C43.6355 40.8265 43.0834 40.4026 42.6491 39.8531C42.22 39.2984 41.9478 38.639 41.8327 37.875L44.062 37.5453C44.219 38.1942 44.5435 38.694 45.0354 39.0446C45.5273 39.3952 46.0873 39.5705 46.7153 39.5705C47.0659 39.5705 47.4061 39.5156 47.7358 39.4057C48.0655 39.2958 48.335 39.1336 48.5443 38.919C48.7589 38.7044 48.8661 38.4401 48.8661 38.1262C48.8661 38.011 48.8478 37.9011 48.8112 37.7965C48.7798 37.6866 48.7248 37.5845 48.6463 37.4903C48.5679 37.3961 48.4553 37.3072 48.3088 37.2234C48.1675 37.1397 47.987 37.0638 47.7672 36.9958L44.8313 36.1323C44.6115 36.0695 44.3551 35.9805 44.062 35.8654C43.7742 35.7503 43.4942 35.5854 43.2221 35.3709C42.95 35.1563 42.7223 34.8737 42.5392 34.5231C42.3613 34.1672 42.2723 33.7198 42.2723 33.1808C42.2723 32.4219 42.4633 31.7913 42.8453 31.289C43.2273 30.7866 43.7376 30.4124 44.376 30.1664C45.0145 29.9205 45.721 29.8001 46.4955 29.8053C47.2752 29.8158 47.9713 29.9492 48.5836 30.2057C49.1958 30.4621 49.7087 30.8363 50.1221 31.3282C50.5355 31.8149 50.8338 32.4115 51.017 33.118L48.7091 33.5105C48.6254 33.1441 48.471 32.8354 48.246 32.5842C48.021 32.333 47.7515 32.142 47.4375 32.0111C47.1287 31.8803 46.8043 31.8097 46.4641 31.7992C46.1292 31.7887 45.8126 31.8358 45.5143 31.9405C45.2212 32.0399 44.9805 32.1864 44.7921 32.3801C44.6089 32.5737 44.5173 32.804 44.5173 33.0709C44.5173 33.3168 44.5932 33.5183 44.745 33.6753C44.8967 33.8271 45.0878 33.95 45.318 34.0442C45.5483 34.1384 45.7838 34.2169 46.0245 34.2797L47.987 34.8135C48.28 34.892 48.6045 34.9967 48.9603 35.1275C49.3162 35.2531 49.6564 35.431 49.9808 35.6613C50.3105 35.8863 50.58 36.1846 50.7894 36.5562C51.0039 36.9277 51.1112 37.3987 51.1112 37.9692C51.1112 38.5762 50.983 39.1074 50.7266 39.5627C50.4754 40.0127 50.1352 40.3869 49.7061 40.6852C49.277 40.9783 48.7903 41.1981 48.246 41.3446C47.707 41.4911 47.1496 41.5644 46.574 41.5644Z" fill="white"/>
<path d="M19.0277 41.3289L18.6273 41.2065L18.462 41.7475H19.0277V41.3289ZM22.4816 30.0251V29.6065H22.1718L22.0812 29.9028L22.4816 30.0251ZM25.6687 30.0251L26.069 29.9028L25.9785 29.6065H25.6687V30.0251ZM29.1226 41.3289V41.7475H29.6883L29.523 41.2065L29.1226 41.3289ZM26.9246 41.3289L26.5246 41.4524L26.6157 41.7475H26.9246V41.3289ZM23.8475 31.3596V30.9409H23.2801L23.4475 31.4831L23.8475 31.3596ZM24.2557 31.3596L24.6563 31.4813L24.8205 30.9409H24.2557V31.3596ZM21.2257 41.3289V41.7475H21.536L21.6262 41.4506L21.2257 41.3289ZM21.1001 38.9739H20.6814V39.3926H21.1001V38.9739ZM21.1001 36.9801V36.5614H20.6814V36.9801H21.1001ZM27.0659 36.9801H27.4846V36.5614H27.0659V36.9801ZM27.0659 38.9739V39.3926H27.4846V38.9739H27.0659ZM19.4281 41.4512L22.882 30.1475L22.0812 29.9028L18.6273 41.2065L19.4281 41.4512ZM22.4816 30.4438H25.6687V29.6065H22.4816V30.4438ZM25.2683 30.1475L28.7222 41.4512L29.523 41.2065L26.069 29.9028L25.2683 30.1475ZM29.1226 40.9102H26.9246V41.7475H29.1226V40.9102ZM27.3247 41.2054L24.2475 31.2361L23.4475 31.4831L26.5246 41.4524L27.3247 41.2054ZM23.8475 31.7783H24.2557V30.9409H23.8475V31.7783ZM23.8551 31.2379L20.8251 41.2071L21.6262 41.4506L24.6563 31.4813L23.8551 31.2379ZM21.2257 40.9102H19.0277V41.7475H21.2257V40.9102ZM21.5187 38.9739V36.9801H20.6814V38.9739H21.5187ZM21.1001 37.3987H27.0659V36.5614H21.1001V37.3987ZM26.6473 36.9801V38.9739H27.4846V36.9801H26.6473ZM27.0659 38.5553H21.1001V39.3926H27.0659V38.5553ZM30.8435 41.3289H30.4249V41.7475H30.8435V41.3289ZM30.8435 30.0251V29.6065H30.4249V30.0251H30.8435ZM35.0511 30.033L35.0432 30.4516L35.0511 30.033ZM35.8517 30.0879L35.8009 30.5035L35.8016 30.5036L35.8517 30.0879ZM38.1674 31.0378L38.4341 30.715L38.1674 31.0378ZM39.6118 33.0316L39.9993 32.8731L39.6118 33.0316ZM39.6118 38.3224L39.9993 38.4809V38.4809L39.6118 38.3224ZM38.1674 40.3163L38.4341 40.639L38.1674 40.3163ZM35.8517 41.2661L35.8016 40.8504L35.8009 40.8505L35.8517 41.2661ZM35.0511 41.321L35.059 41.7396L35.0511 41.321ZM33.0101 39.3193H32.5914V39.738H33.0101V39.3193ZM35.0746 39.3115L35.0837 39.7301L35.0928 39.7297L35.0746 39.3115ZM35.7261 39.2408L35.804 39.6522L35.8091 39.6512L35.7261 39.2408ZM36.9272 38.55L36.6112 38.2753L36.609 38.278L36.9272 38.55ZM37.6179 37.247L37.2168 37.127L37.2157 37.1309L37.6179 37.247ZM37.6101 34.0678L37.209 34.1877L37.2101 34.1915L37.6101 34.0678ZM36.9115 32.7804L37.2233 32.5011L36.9115 32.7804ZM35.7261 32.1132L35.6376 32.5225L35.6449 32.5239L35.7261 32.1132ZM35.0746 32.0425L35.0837 31.624L35.0746 32.0425ZM33.0101 32.0347V31.616H32.5914V32.0347H33.0101ZM31.2622 41.3289V30.0251H30.4249V41.3289H31.2622ZM30.8435 30.4438H34.5016V29.6065H30.8435V30.4438ZM34.5016 30.4438C34.5859 30.4438 34.765 30.4463 35.0432 30.4516L35.059 29.6144C34.7824 29.6092 34.5952 29.6065 34.5016 29.6065V30.4438ZM35.0432 30.4516C35.3072 30.4565 35.5597 30.474 35.8009 30.5035L35.9026 29.6724C35.6309 29.6391 35.3496 29.6199 35.059 29.6144L35.0432 30.4516ZM35.8016 30.5036C36.6421 30.605 37.3363 30.894 37.9007 31.3605L38.4341 30.715C37.7321 30.1348 36.8825 29.7906 35.9019 29.6723L35.8016 30.5036ZM37.9007 31.3605C38.4776 31.8372 38.9191 32.4441 39.2243 33.1901L39.9993 32.8731C39.6451 32.0073 39.1237 31.285 38.4341 30.715L37.9007 31.3605ZM39.2243 33.1901C39.5315 33.9409 39.6877 34.7682 39.6877 35.677H40.525C40.525 34.6704 40.3515 33.7341 39.9993 32.8731L39.2243 33.1901ZM39.6877 35.677C39.6877 36.5858 39.5315 37.4131 39.2243 38.1639L39.9993 38.4809C40.3515 37.6199 40.525 36.6836 40.525 35.677H39.6877ZM39.2243 38.1639C38.9191 38.9099 38.4776 39.5168 37.9007 39.9935L38.4341 40.639C39.1237 40.0691 39.6451 39.3467 39.9993 38.4809L39.2243 38.1639ZM37.9007 39.9935C37.3363 40.46 36.6421 40.749 35.8016 40.8504L35.9019 41.6817C36.8825 41.5634 37.7321 41.2192 38.4341 40.639L37.9007 39.9935ZM35.8009 40.8505C35.5597 40.8801 35.3072 40.8975 35.0432 40.9025L35.059 41.7396C35.3496 41.7341 35.6309 41.7149 35.9026 41.6816L35.8009 40.8505ZM35.0432 40.9025C34.765 40.9077 34.5859 40.9102 34.5016 40.9102V41.7475C34.5952 41.7475 34.7824 41.7448 35.059 41.7396L35.0432 40.9025ZM34.5016 40.9102H30.8435V41.7475H34.5016V40.9102ZM33.0101 39.738H34.5016V38.9007H33.0101V39.738ZM34.5016 39.738C34.6473 39.738 34.8417 39.7353 35.0837 39.73L35.0655 38.8929C34.826 38.8981 34.6385 38.9007 34.5016 38.9007V39.738ZM35.0928 39.7297C35.3493 39.7186 35.5869 39.6933 35.804 39.6522L35.6483 38.8295C35.4781 38.8617 35.2814 38.8834 35.0564 38.8932L35.0928 39.7297ZM35.8091 39.6512C36.3871 39.5344 36.8722 39.2585 37.2454 38.8221L36.609 38.278C36.3646 38.5638 36.049 38.7484 35.6432 38.8305L35.8091 39.6512ZM37.2431 38.8248C37.601 38.4131 37.8585 37.9231 38.0202 37.3631L37.2157 37.1309C37.0843 37.5861 36.8813 37.9648 36.6112 38.2753L37.2431 38.8248ZM38.0191 37.3669C38.1827 36.8197 38.2643 36.2559 38.2643 35.677H37.4269C37.4269 36.1761 37.3568 36.659 37.2168 37.1271L38.0191 37.3669ZM38.2643 35.677C38.2643 35.0726 38.1802 34.4943 38.0101 33.9441L37.2101 34.1915C37.354 34.6566 37.4269 35.1511 37.4269 35.677H38.2643ZM38.0112 33.9479C37.844 33.3887 37.5833 32.9031 37.2233 32.5011L36.5996 33.0597C36.8676 33.359 37.0726 33.7317 37.209 34.1877L38.0112 33.9479ZM37.2233 32.5011C36.8467 32.0806 36.3697 31.8137 35.8074 31.7025L35.6449 32.5239C36.035 32.6011 36.3482 32.779 36.5996 33.0597L37.2233 32.5011ZM35.8146 31.704C35.59 31.6554 35.3456 31.6297 35.0837 31.624L35.0655 32.4611C35.285 32.4659 35.475 32.4872 35.6377 32.5224L35.8146 31.704ZM35.0837 31.624C34.8417 31.6187 34.6473 31.616 34.5016 31.616V32.4533C34.6385 32.4533 34.826 32.4559 35.0655 32.4611L35.0837 31.624ZM34.5016 31.616H33.0101V32.4533H34.5016V31.616ZM32.5914 32.0347V39.3193H33.4288V32.0347H32.5914ZM44.3054 41.1248L44.1351 41.5073L44.1387 41.5088L44.3054 41.1248ZM42.6491 39.8531L42.3179 40.1093L42.3206 40.1127L42.6491 39.8531ZM41.8327 37.875L41.7714 37.4608L41.3562 37.5222L41.4187 37.9373L41.8327 37.875ZM44.062 37.5453L44.469 37.4468L44.3791 37.0752L44.0008 37.1311L44.062 37.5453ZM45.0354 39.0446L45.2784 38.7037L45.0354 39.0446ZM47.7358 39.4057L47.6034 39.0085H47.6034L47.7358 39.4057ZM48.5443 38.919L48.2482 38.6229L48.2446 38.6266L48.5443 38.919ZM48.8112 37.7965L48.4086 37.9115L48.412 37.9232L48.416 37.9348L48.8112 37.7965ZM48.6463 37.4903L48.968 37.2223L48.6463 37.4903ZM48.3088 37.2234L48.0953 37.5836L48.1011 37.5869L48.3088 37.2234ZM47.7672 36.9958L47.891 36.5958L47.8853 36.5941L47.7672 36.9958ZM44.8313 36.1323L44.9495 35.7306L44.9463 35.7297L44.8313 36.1323ZM44.062 35.8654L43.9066 36.2541L43.909 36.2551L44.062 35.8654ZM43.2221 35.3709L43.4813 35.0421L43.2221 35.3709ZM42.5392 34.5231L42.1647 34.7103L42.1681 34.7169L42.5392 34.5231ZM42.8453 31.289L43.1786 31.5424L42.8453 31.289ZM44.376 30.1664L44.5265 30.5571L44.376 30.1664ZM46.4955 29.8053L46.5011 29.3867L46.4983 29.3867L46.4955 29.8053ZM48.5836 30.2057L48.7453 29.8195L48.5836 30.2057ZM50.1221 31.3282L49.8016 31.5976L49.803 31.5992L50.1221 31.3282ZM51.017 33.118L51.0872 33.5307L51.5367 33.4543L51.4223 33.0129L51.017 33.118ZM48.7091 33.5105L48.301 33.6037L48.3892 33.9895L48.7793 33.9232L48.7091 33.5105ZM48.246 32.5842L47.9342 32.8635L48.246 32.5842ZM47.4375 32.0111L47.2741 32.3966L47.2765 32.3976L47.4375 32.0111ZM46.4641 31.7992L46.451 32.2176L46.4512 32.2177L46.4641 31.7992ZM45.5143 31.9405L45.6488 32.337L45.6529 32.3355L45.5143 31.9405ZM44.7921 32.3801L44.492 32.0881L44.4879 32.0924L44.7921 32.3801ZM44.745 33.6753L44.4439 33.9663L44.4489 33.9713L44.745 33.6753ZM45.318 34.0442L45.4765 33.6568L45.318 34.0442ZM46.0245 34.2797L46.1344 33.8757L46.1302 33.8746L46.0245 34.2797ZM47.987 34.8135L47.8771 35.2175L47.8786 35.2179L47.987 34.8135ZM48.9603 35.1275L48.8159 35.5205L48.821 35.5223L48.9603 35.1275ZM49.9808 35.6613L49.7385 36.0028L49.7448 36.0071L49.9808 35.6613ZM50.7894 36.5562L50.4246 36.7617L50.4268 36.7656L50.7894 36.5562ZM50.7266 39.5627L50.3618 39.3572L50.361 39.3586L50.7266 39.5627ZM49.7061 40.6852L49.9422 41.0309L49.945 41.029L49.7061 40.6852ZM48.246 41.3446L48.1372 40.9403L48.1362 40.9406L48.246 41.3446ZM46.574 41.1457C45.7862 41.1457 45.0878 41.008 44.4721 40.7408L44.1387 41.5088C44.8731 41.8277 45.6872 41.983 46.574 41.983V41.1457ZM44.4757 40.7423C43.8647 40.4703 43.3679 40.0873 42.9775 39.5935L42.3206 40.1127C42.799 40.7179 43.4064 41.1827 44.1351 41.5072L44.4757 40.7423ZM42.9802 39.597C42.5991 39.1043 42.3523 38.5134 42.2467 37.8126L41.4187 37.9373C41.5434 38.7646 41.8408 39.4925 42.3179 40.1093L42.9802 39.597ZM41.8939 38.2891L44.1233 37.9594L44.0008 37.1311L41.7714 37.4608L41.8939 38.2891ZM43.6551 37.6437C43.8331 38.3795 44.2097 38.9701 44.7924 39.3855L45.2784 38.7037C44.8774 38.4178 44.6049 38.0089 44.469 37.4468L43.6551 37.6437ZM44.7924 39.3855C45.3582 39.7888 46.0039 39.9892 46.7153 39.9892V39.1519C46.1707 39.1519 45.6965 39.0016 45.2784 38.7037L44.7924 39.3855ZM46.7153 39.9892C47.1105 39.9892 47.4954 39.9271 47.8682 39.8029L47.6034 39.0085C47.3168 39.104 47.0213 39.1519 46.7153 39.1519V39.9892ZM47.8682 39.8029C48.2511 39.6752 48.5811 39.4808 48.844 39.2113L48.2446 38.6266C48.0888 38.7863 47.8799 38.9163 47.6034 39.0085L47.8682 39.8029ZM48.8403 39.215C49.1364 38.9189 49.2848 38.5469 49.2848 38.1262H48.4475C48.4475 38.3334 48.3813 38.4899 48.2483 38.623L48.8403 39.215ZM49.2848 38.1262C49.2848 37.9658 49.2591 37.809 49.2063 37.6582L48.416 37.9348C48.4365 37.9933 48.4475 38.0563 48.4475 38.1262H49.2848ZM49.2137 37.6814C49.1652 37.5115 49.0811 37.358 48.968 37.2223L48.3247 37.7583C48.3686 37.811 48.3944 37.8617 48.4086 37.9115L49.2137 37.6814ZM48.968 37.2223C48.848 37.0783 48.6912 36.9598 48.5165 36.8599L48.1011 37.5869C48.2194 37.6545 48.2877 37.714 48.3247 37.7583L48.968 37.2223ZM48.5222 36.8633C48.344 36.7576 48.1306 36.67 47.891 36.5958L47.6434 37.3957C47.8433 37.4576 47.991 37.5218 48.0954 37.5836L48.5222 36.8633ZM47.8853 36.5941L44.9495 35.7307L44.7132 36.5339L47.649 37.3974L47.8853 36.5941ZM44.9463 35.7297C44.7432 35.6717 44.5 35.5877 44.2151 35.4757L43.909 36.2551C44.2102 36.3734 44.4799 36.4673 44.7163 36.5348L44.9463 35.7297ZM44.2175 35.4767C43.9711 35.3781 43.7256 35.2347 43.4813 35.0421L42.9629 35.6996C43.2629 35.9362 43.5774 36.1224 43.9066 36.2541L44.2175 35.4767ZM43.4813 35.0421C43.2617 34.869 43.0699 34.6349 42.9103 34.3292L42.1681 34.7169C42.3748 35.1125 42.6383 35.4437 42.9629 35.6996L43.4813 35.0421ZM42.9136 34.3359C42.7732 34.055 42.6909 33.6767 42.6909 33.1808H41.8536C41.8536 33.7629 41.9493 34.2795 42.1647 34.7103L42.9136 34.3359ZM42.6909 33.1808C42.6909 32.4944 42.8625 31.958 43.1786 31.5424L42.5121 31.0355C42.0641 31.6246 41.8536 32.3495 41.8536 33.1808H42.6909ZM43.1786 31.5424C43.5097 31.107 43.9542 30.7776 44.5265 30.5571L44.2255 29.7758C43.5209 30.0472 42.945 30.4662 42.5121 31.0355L43.1786 31.5424ZM44.5265 30.5571C45.1101 30.3323 45.7637 30.2191 46.4927 30.224L46.4983 29.3867C45.6783 29.3811 44.9189 29.5086 44.2255 29.7758L44.5265 30.5571ZM46.4899 30.224C47.2252 30.2338 47.8669 30.3594 48.4218 30.5918L48.7453 29.8195C48.0757 29.5391 47.3253 29.3978 46.5011 29.3867L46.4899 30.224ZM48.4218 30.5918C48.9747 30.8234 49.4325 31.1584 49.8016 31.5976L50.4426 31.0588C49.9849 30.5142 49.4169 30.1008 48.7453 29.8195L48.4218 30.5918ZM49.803 31.5992C50.1701 32.0314 50.4422 32.5689 50.6117 33.223L51.4223 33.0129C51.2255 32.254 50.901 31.5984 50.4412 31.0572L49.803 31.5992ZM50.9468 32.7052L48.639 33.0977L48.7793 33.9232L51.0872 33.5307L50.9468 32.7052ZM49.1173 33.4172C49.0196 32.9897 48.8354 32.6147 48.5578 32.3048L47.9342 32.8635C48.1066 33.056 48.2313 33.2985 48.301 33.6037L49.1173 33.4172ZM48.5578 32.3048C48.2908 32.0067 47.9696 31.7793 47.5985 31.6247L47.2765 32.3976C47.5333 32.5046 47.7512 32.6592 47.9342 32.8635L48.5578 32.3048ZM47.6008 31.6257C47.2437 31.4743 46.8681 31.3928 46.477 31.3807L46.4512 32.2177C46.7404 32.2265 47.0138 32.2863 47.2741 32.3966L47.6008 31.6257ZM46.4772 31.3807C46.0938 31.3688 45.7255 31.4227 45.3757 31.5454L45.6529 32.3355C45.8996 32.249 46.1645 32.2087 46.451 32.2176L46.4772 31.3807ZM45.3798 31.544C45.0332 31.6616 44.7329 31.8406 44.492 32.0881L45.0921 32.672C45.2281 32.5323 45.4092 32.4182 45.6488 32.3369L45.3798 31.544ZM44.4879 32.0924C44.2311 32.3639 44.0987 32.6971 44.0987 33.0709H44.936C44.936 32.9108 44.9867 32.7836 45.0962 32.6678L44.4879 32.0924ZM44.0987 33.0709C44.0987 33.4105 44.207 33.7211 44.444 33.9663L45.046 33.3843C44.9795 33.3155 44.936 33.2231 44.936 33.0709H44.0987ZM44.4489 33.9713C44.6458 34.1682 44.8859 34.3198 45.1595 34.4317L45.4765 33.6568C45.2896 33.5803 45.1477 33.486 45.041 33.3793L44.4489 33.9713ZM45.1595 34.4317C45.407 34.533 45.6601 34.6173 45.9188 34.6848L46.1302 33.8746C45.9074 33.8165 45.6896 33.7439 45.4765 33.6568L45.1595 34.4317ZM45.9146 34.6837L47.8771 35.2175L48.0968 34.4095L46.1344 33.8758L45.9146 34.6837ZM47.8786 35.2179C48.1569 35.2925 48.4691 35.393 48.8159 35.5205L49.1048 34.7346C48.7399 34.6004 48.4031 34.4916 48.0953 34.4091L47.8786 35.2179ZM48.821 35.5223C49.1383 35.6343 49.444 35.7937 49.7385 36.0027L50.2231 35.3199C49.8687 35.0684 49.4941 34.8719 49.0997 34.7327L48.821 35.5223ZM49.7448 36.0071C50.0178 36.1934 50.2446 36.4422 50.4246 36.7617L51.1541 36.3507C50.9154 35.927 50.6032 35.5793 50.2168 35.3155L49.7448 36.0071ZM50.4268 36.7656C50.5944 37.0558 50.6925 37.4488 50.6925 37.9692H51.5299C51.5299 37.3487 51.4134 36.7997 51.1519 36.3468L50.4268 36.7656ZM50.6925 37.9692C50.6925 38.516 50.5775 38.9741 50.3618 39.3572L51.0913 39.7681C51.3884 39.2406 51.5299 38.6364 51.5299 37.9692H50.6925ZM50.361 39.3586C50.1413 39.7523 49.8447 40.079 49.4671 40.3414L49.945 41.029C50.4257 40.6949 50.8095 40.2732 51.0921 39.7667L50.361 39.3586ZM49.47 40.3395C49.0828 40.6039 48.6399 40.805 48.1372 40.9403L48.3548 41.7488C48.9407 41.5911 49.4711 41.3527 49.9422 41.0309L49.47 40.3395ZM48.1362 40.9406C47.634 41.0771 47.1137 41.1457 46.574 41.1457V41.983C47.1856 41.983 47.7799 41.9051 48.3558 41.7486L48.1362 40.9406Z" fill="white"/>
<path fill-rule="evenodd" clip-rule="evenodd" d="M38.8667 27.1782L49.1232 16.387L52.2439 19.3126L41.9874 30.1038C41.2204 28.4441 40.5735 27.7675 38.8667 27.1782Z" fill="white"/>
<path d="M28.1289 44.682L21.8098 52.0706L18.6016 48.8624L22.2472 44.682H28.1289Z" fill="white"/>
<defs>
<linearGradient id="paint0_linear_5070_14609" x1="106.473" y1="70.5331" x2="106.473" y2="141.066" gradientUnits="userSpaceOnUse">
<stop stop-color="#18A9FD"/>
<stop offset="1" stop-color="#92C1FF"/>
</linearGradient>
</defs>
</svg>
