<svg width="71" height="71" viewBox="0 0 71 71" fill="none" xmlns="http://www.w3.org/2000/svg">
<rect x="70.8833" y="70.5331" width="70.5331" height="70.5331" rx="35.2665" transform="rotate(180 70.8833 70.5331)" fill="url(#paint0_linear_5070_14610)"/>
<path d="M25.4165 50.517C24.3302 50.5159 23.2886 50.0838 22.5204 49.3156C21.7522 48.5474 21.3202 47.5058 21.3191 46.4193V40.3197C21.3191 40.0419 21.4294 39.7756 21.6258 39.5792C21.8221 39.3829 22.0884 39.2726 22.3661 39.2726C22.6438 39.2726 22.9102 39.3829 23.1065 39.5792C23.3029 39.7756 23.4132 40.0419 23.4132 40.3197V46.4193C23.4136 46.9507 23.6247 47.4602 24.0003 47.8361C24.3759 48.2119 24.8852 48.4234 25.4165 48.4242H46.7679C47.2994 48.4234 47.8088 48.212 48.1846 47.8361C48.5604 47.4603 48.7719 46.9508 48.7726 46.4193V40.3197C48.7726 40.0419 48.8829 39.7756 49.0793 39.5792C49.2757 39.3829 49.542 39.2726 49.8197 39.2726C50.0974 39.2726 50.3637 39.3829 50.5601 39.5792C50.7564 39.7756 50.8667 40.0419 50.8667 40.3197V46.4193C50.8656 47.5058 50.4336 48.5474 49.6654 49.3156C48.8972 50.0838 47.8557 50.5159 46.7693 50.517H25.4165ZM36.0922 41.3654H35.9652H35.9442H35.9233H35.9023H35.8814H35.8619H35.8437H35.827H35.8186H35.8046H35.7935H35.7823H35.7669H35.7586H35.7404L35.7195 41.357C35.6267 41.3176 35.5402 41.2649 35.4626 41.2006L35.4458 41.1866L35.4305 41.1741L35.4221 41.1671L35.4109 41.1573L35.3928 41.1392L27.7256 33.434C27.6284 33.3367 27.5512 33.2212 27.4986 33.0941C27.4459 32.9671 27.4188 32.8309 27.4188 32.6933C27.4188 32.4155 27.5292 32.1491 27.7256 31.9527C27.922 31.7562 28.1884 31.6459 28.4662 31.6459C28.744 31.6459 29.0104 31.7562 29.2068 31.9527L35.0452 37.7913V22.0164C35.0452 21.7387 35.1555 21.4724 35.3518 21.276C35.5482 21.0796 35.8145 20.9693 36.0922 20.9693C36.3699 20.9693 36.6362 21.0796 36.8326 21.276C37.0289 21.4724 37.1393 21.7387 37.1393 22.0164V37.7927L42.9776 31.9541C43.174 31.7576 43.4404 31.6473 43.7182 31.6473C43.996 31.6473 44.2624 31.7576 44.4588 31.9541C44.6552 32.1505 44.7656 32.4169 44.7656 32.6947C44.7656 32.9725 44.6552 33.2389 44.4588 33.4353L36.8321 41.0596C36.7068 41.1859 36.551 41.2778 36.3798 41.3263H36.3603H36.3519H36.3365H36.3254H36.3142H36.2988H36.2891H36.2737H36.2569H36.2388H36.2318H36.2137H36.0866L36.0922 41.3654Z" fill="#FF4173" stroke="white" stroke-width="2.38287"/>
<defs>
<linearGradient id="paint0_linear_5070_14610" x1="106.15" y1="70.5331" x2="106.15" y2="141.066" gradientUnits="userSpaceOnUse">
<stop stop-color="#FF1854"/>
<stop offset="1" stop-color="#FF89AA"/>
</linearGradient>
</defs>
</svg>
