<svg width="72" height="71" viewBox="0 0 72 71" fill="none" xmlns="http://www.w3.org/2000/svg">
<rect x="71.2065" y="70.6833" width="70.5331" height="70.5331" rx="35.2665" transform="rotate(180 71.2065 70.6833)" fill="url(#paint0_linear_5070_14612)"/>
<path d="M44.3763 17.5467C43.2977 16.6414 41.8856 16.3189 40.5528 16.6735L30.4908 19.319C29.522 19.5739 28.6612 20.1665 28.0461 21.0023C27.431 21.8382 27.0966 22.8692 27.0966 23.9306V39.3867C25.8604 38.391 24.2702 38.0362 22.7622 38.4199C21.2542 38.8032 19.9865 39.8845 19.3074 41.3672C18.6281 42.8497 18.6084 44.5778 19.2538 46.0777C19.8991 47.5772 21.1415 48.6911 22.6405 49.1133C24.1391 49.5354 25.737 49.2218 26.9955 48.2583C28.2541 47.295 29.041 45.783 29.1407 44.1369C29.1515 44.0742 29.1573 44.0108 29.1577 43.947V28.7637C29.1577 27.7721 29.8258 26.9049 30.7846 26.6518L41.2843 23.8803C42.6698 23.5146 44.0261 24.5594 44.0261 25.9922V29.5992C42.7783 28.5982 41.1728 28.2492 39.656 28.6497C38.1393 29.0501 36.8731 30.1569 36.2103 31.6623C35.5472 33.1674 35.558 34.9106 36.2395 36.4063C36.9213 37.9023 38.2007 38.9912 39.7223 39.3703C41.244 39.7495 42.8449 39.3782 44.0803 38.3599C45.3153 37.3416 46.0529 35.7849 46.0872 34.123V34.0573V21.2847C46.0913 19.8242 45.4595 18.4442 44.3763 17.5467Z" fill="white"/>
<path d="M34.7294 41.6519H37.0152L36.3203 45.1346H39.8276L40.5237 41.6519H42.8108L41.0641 50.3891H38.7771L39.5162 46.7319H36.0077L35.2686 50.3891H32.9814L34.7294 41.6519Z" fill="white"/>
<path d="M44.5355 41.6519H47.9574C49.1172 41.6519 50.0058 41.9133 50.6232 42.4383C51.2393 42.9545 51.548 43.703 51.548 44.6852C51.548 46.5405 51.1043 47.9554 50.2157 48.9287C49.3371 49.902 48.0474 50.3891 46.3452 50.3891H42.8108L44.5355 41.6519ZM46.5976 48.7919C47.14 48.7919 47.6124 48.6295 48.0136 48.3047C48.426 47.9799 48.7385 47.5261 48.9535 46.9443C49.1784 46.3537 49.2909 45.6663 49.2909 44.8843C49.2909 44.3271 49.1734 43.9155 48.9397 43.6485C48.706 43.3827 48.3323 43.2492 47.8174 43.2492H46.4851L45.3916 48.7919H46.5976Z" fill="white"/>
<defs>
<linearGradient id="paint0_linear_5070_14612" x1="106.473" y1="70.6833" x2="106.473" y2="141.216" gradientUnits="userSpaceOnUse">
<stop stop-color="#FB7854"/>
<stop offset="1" stop-color="#FFE2C1"/>
</linearGradient>
</defs>
</svg>
