<svg width="97" height="96" viewBox="0 0 97 96" fill="none" xmlns="http://www.w3.org/2000/svg">
<rect x="96.5" y="96" width="96" height="96" rx="48" transform="rotate(180 96.5 96)" fill="url(#paint0_linear_2182_36349)"/>
<path fill-rule="evenodd" clip-rule="evenodd" d="M69.6184 37C68.3975 37 67.4078 37.9897 67.4078 39.2105V62.7895C67.4078 64.0103 68.3975 65 69.6184 65C70.8392 65 71.8289 64.0103 71.8289 62.7895V39.2105C71.8289 37.9897 70.8392 37 69.6184 37ZM28.25 63.7662L41.4342 56.1544V61.1682C41.4342 63.4776 43.9342 64.9209 45.9342 63.7662L62.9078 53.9665C64.9078 52.8118 64.9078 49.925 62.9078 48.7703L45.9342 38.9706C43.9342 37.8159 41.4342 39.2592 41.4342 41.5686V46.5824L28.25 38.9706C26.25 37.8159 23.75 39.2592 23.75 41.5686L23.75 61.1682C23.75 63.4776 26.25 64.9209 28.25 63.7662Z" fill="white"/>
<defs>
<linearGradient id="paint0_linear_2182_36349" x1="144.5" y1="96" x2="144.5" y2="192" gradientUnits="userSpaceOnUse">
<stop stop-color="#F45734"/>
<stop offset="1" stop-color="#FFE2DC"/>
</linearGradient>
</defs>
</svg>
