<svg width="71" height="71" viewBox="0 0 71 71" fill="none" xmlns="http://www.w3.org/2000/svg">
<rect x="70.8833" y="70.6833" width="70.5331" height="70.5331" rx="35.2665" transform="rotate(180 70.8833 70.6833)" fill="url(#paint0_linear_5070_14611)"/>
<path d="M24.6731 50.0095L34.7893 30.5172C35.4026 29.3356 37.0945 29.3401 37.7015 30.525L47.5355 49.7233C48.4882 51.5831 46.6484 53.6392 44.6945 52.8982L37.0846 50.0121C36.5497 49.8093 35.9582 49.8146 35.4272 50.0271L27.5471 53.1802C25.5825 53.9663 23.6984 51.8876 24.6731 50.0095Z" fill="white"/>
<path fill-rule="evenodd" clip-rule="evenodd" d="M38.259 15.6137C37.2617 13.9263 34.8203 13.9263 33.823 15.6137L16.1116 45.58C15.0965 47.2975 16.3346 49.4674 18.3296 49.4674H23.8443L34.2117 29.0379C35.063 27.3606 37.4638 27.3749 38.2949 29.0624L48.3449 49.4674H53.7524C55.7474 49.4674 56.9855 47.2975 55.9704 45.58L38.259 15.6137Z" fill="white"/>
<defs>
<linearGradient id="paint0_linear_5070_14611" x1="106.15" y1="70.6833" x2="106.15" y2="141.216" gradientUnits="userSpaceOnUse">
<stop stop-color="#13CB8C"/>
<stop offset="1" stop-color="#BCFFE2"/>
</linearGradient>
</defs>
</svg>
